G75*
G70*
%OFA0B0*%
%FSLAX24Y24*%
%IPPOS*%
%LPD*%
%AMOC8*
5,1,8,0,0,1.08239X$1,22.5*
%
%ADD10C,0.0050*%
D10*
X003451Y006216D02*
X003456Y006427D01*
X003472Y006637D01*
X003498Y006847D01*
X003534Y007055D01*
X003580Y007261D01*
X003636Y007464D01*
X003702Y007665D01*
X003778Y007862D01*
X003864Y008054D01*
X003959Y008243D01*
X004063Y008427D01*
X004176Y008605D01*
X004297Y008778D01*
X004427Y008944D01*
X004565Y009104D01*
X004710Y009257D01*
X004863Y009402D01*
X005023Y009540D01*
X005189Y009670D01*
X005362Y009791D01*
X005540Y009904D01*
X005724Y010008D01*
X005913Y010103D01*
X006105Y010189D01*
X006302Y010265D01*
X006503Y010331D01*
X006706Y010387D01*
X006912Y010433D01*
X007120Y010469D01*
X007330Y010495D01*
X007540Y010511D01*
X007751Y010516D01*
X007962Y010511D01*
X008172Y010495D01*
X008382Y010469D01*
X008590Y010433D01*
X008796Y010387D01*
X008999Y010331D01*
X009200Y010265D01*
X009397Y010189D01*
X009589Y010103D01*
X009778Y010008D01*
X009962Y009904D01*
X010140Y009791D01*
X010313Y009670D01*
X010479Y009540D01*
X010639Y009402D01*
X010792Y009257D01*
X010937Y009104D01*
X011075Y008944D01*
X011205Y008778D01*
X011326Y008605D01*
X011439Y008427D01*
X011543Y008243D01*
X011638Y008054D01*
X011724Y007862D01*
X011800Y007665D01*
X011866Y007464D01*
X011922Y007261D01*
X011968Y007055D01*
X012004Y006847D01*
X012030Y006637D01*
X012046Y006427D01*
X012051Y006216D01*
X012046Y006005D01*
X012030Y005795D01*
X012004Y005585D01*
X011968Y005377D01*
X011922Y005171D01*
X011866Y004968D01*
X011800Y004767D01*
X011724Y004570D01*
X011638Y004378D01*
X011543Y004189D01*
X011439Y004005D01*
X011326Y003827D01*
X011205Y003654D01*
X011075Y003488D01*
X010937Y003328D01*
X010792Y003175D01*
X010639Y003030D01*
X010479Y002892D01*
X010313Y002762D01*
X010140Y002641D01*
X009962Y002528D01*
X009778Y002424D01*
X009589Y002329D01*
X009397Y002243D01*
X009200Y002167D01*
X008999Y002101D01*
X008796Y002045D01*
X008590Y001999D01*
X008382Y001963D01*
X008172Y001937D01*
X007962Y001921D01*
X007751Y001916D01*
X007540Y001921D01*
X007330Y001937D01*
X007120Y001963D01*
X006912Y001999D01*
X006706Y002045D01*
X006503Y002101D01*
X006302Y002167D01*
X006105Y002243D01*
X005913Y002329D01*
X005724Y002424D01*
X005540Y002528D01*
X005362Y002641D01*
X005189Y002762D01*
X005023Y002892D01*
X004863Y003030D01*
X004710Y003175D01*
X004565Y003328D01*
X004427Y003488D01*
X004297Y003654D01*
X004176Y003827D01*
X004063Y004005D01*
X003959Y004189D01*
X003864Y004378D01*
X003778Y004570D01*
X003702Y004767D01*
X003636Y004968D01*
X003580Y005171D01*
X003534Y005377D01*
X003498Y005585D01*
X003472Y005795D01*
X003456Y006005D01*
X003451Y006216D01*
X009766Y009999D02*
X010826Y011060D01*
X012594Y009292D01*
X011534Y008232D01*
M02*
