G75*
G70*
%OFA0B0*%
%FSLAX24Y24*%
%IPPOS*%
%LPD*%
%AMOC8*
5,1,8,0,0,1.08239X$1,22.5*
%
%ADD10C,0.0050*%
D10*
X002753Y006216D02*
X002758Y006427D01*
X002774Y006637D01*
X002800Y006847D01*
X002836Y007055D01*
X002882Y007261D01*
X002938Y007464D01*
X003004Y007665D01*
X003080Y007862D01*
X003166Y008054D01*
X003261Y008243D01*
X003365Y008427D01*
X003478Y008605D01*
X003599Y008778D01*
X003729Y008944D01*
X003867Y009104D01*
X004012Y009257D01*
X004165Y009402D01*
X004325Y009540D01*
X004491Y009670D01*
X004664Y009791D01*
X004842Y009904D01*
X005026Y010008D01*
X005215Y010103D01*
X005407Y010189D01*
X005604Y010265D01*
X005805Y010331D01*
X006008Y010387D01*
X006214Y010433D01*
X006422Y010469D01*
X006632Y010495D01*
X006842Y010511D01*
X007053Y010516D01*
X007264Y010511D01*
X007474Y010495D01*
X007684Y010469D01*
X007892Y010433D01*
X008098Y010387D01*
X008301Y010331D01*
X008502Y010265D01*
X008699Y010189D01*
X008891Y010103D01*
X009080Y010008D01*
X009264Y009904D01*
X009442Y009791D01*
X009615Y009670D01*
X009781Y009540D01*
X009941Y009402D01*
X010094Y009257D01*
X010239Y009104D01*
X010377Y008944D01*
X010507Y008778D01*
X010628Y008605D01*
X010741Y008427D01*
X010845Y008243D01*
X010940Y008054D01*
X011026Y007862D01*
X011102Y007665D01*
X011168Y007464D01*
X011224Y007261D01*
X011270Y007055D01*
X011306Y006847D01*
X011332Y006637D01*
X011348Y006427D01*
X011353Y006216D01*
X011348Y006005D01*
X011332Y005795D01*
X011306Y005585D01*
X011270Y005377D01*
X011224Y005171D01*
X011168Y004968D01*
X011102Y004767D01*
X011026Y004570D01*
X010940Y004378D01*
X010845Y004189D01*
X010741Y004005D01*
X010628Y003827D01*
X010507Y003654D01*
X010377Y003488D01*
X010239Y003328D01*
X010094Y003175D01*
X009941Y003030D01*
X009781Y002892D01*
X009615Y002762D01*
X009442Y002641D01*
X009264Y002528D01*
X009080Y002424D01*
X008891Y002329D01*
X008699Y002243D01*
X008502Y002167D01*
X008301Y002101D01*
X008098Y002045D01*
X007892Y001999D01*
X007684Y001963D01*
X007474Y001937D01*
X007264Y001921D01*
X007053Y001916D01*
X006842Y001921D01*
X006632Y001937D01*
X006422Y001963D01*
X006214Y001999D01*
X006008Y002045D01*
X005805Y002101D01*
X005604Y002167D01*
X005407Y002243D01*
X005215Y002329D01*
X005026Y002424D01*
X004842Y002528D01*
X004664Y002641D01*
X004491Y002762D01*
X004325Y002892D01*
X004165Y003030D01*
X004012Y003175D01*
X003867Y003328D01*
X003729Y003488D01*
X003599Y003654D01*
X003478Y003827D01*
X003365Y004005D01*
X003261Y004189D01*
X003166Y004378D01*
X003080Y004570D01*
X003004Y004767D01*
X002938Y004968D01*
X002882Y005171D01*
X002836Y005377D01*
X002800Y005585D01*
X002774Y005795D01*
X002758Y006005D01*
X002753Y006216D01*
X009069Y009999D02*
X010129Y011060D01*
X011897Y009292D01*
X010836Y008232D01*
M02*
